<?xml version="1.0" encoding="UTF-8"?><svg id="_レイヤー_2" xmlns="http://www.w3.org/2000/svg" xmlns:xlink="http://www.w3.org/1999/xlink" viewBox="0 0 293.28 293.3"><defs><style>.cls-1{filter:url(#drop-shadow-1);}.cls-2{stroke:#231815;}.cls-2,.cls-3{fill:none;stroke-miterlimit:10;stroke-width:.25px;}.cls-4{filter:url(#drop-shadow-2);}.cls-3{stroke:#fff;}</style><filter id="drop-shadow-1" filterUnits="userSpaceOnUse"><feOffset dx=".28" dy=".28"/><feGaussianBlur result="blur" stdDeviation=".14"/><feFlood flood-color="#231815" flood-opacity="1"/><feComposite in2="blur" operator="in"/><feComposite in="SourceGraphic"/></filter><filter id="drop-shadow-2" filterUnits="userSpaceOnUse"><feOffset dx=".57" dy=".57"/><feGaussianBlur result="blur-2" stdDeviation=".28"/><feFlood flood-color="#231815" flood-opacity="1"/><feComposite in2="blur-2" operator="in"/><feComposite in="SourceGraphic"/></filter></defs><g id="_レイヤー_1-2"><g class="cls-1"><line class="cls-2" x1=".12" y1="1.41" x2=".12" y2="281.82"/><line class="cls-2" x1="12.19" y1="1.41" x2="12.19" y2="281.82"/><line class="cls-2" x1="6.16" y1="1.41" x2="6.16" y2="281.82"/><line class="cls-2" x1="19.22" y1="1.41" x2="19.22" y2="281.82"/><line class="cls-2" x1="24.25" y1="1.41" x2="24.25" y2="281.82"/><line class="cls-2" x1="29.27" y1="1.41" x2="29.27" y2="281.82"/><line class="cls-2" x1="37.31" y1="1.41" x2="37.31" y2="281.82"/><line class="cls-2" x1="40.33" y1="1.41" x2="40.33" y2="281.82"/><line class="cls-2" x1="61.43" y1="3.93" x2="61.43" y2="284.33"/><line class="cls-2" x1="53.39" y1="1.41" x2="53.39" y2="281.82"/><line class="cls-2" x1="45.35" y1="3.93" x2="45.35" y2="284.33"/><line class="cls-2" x1="64.9" y1="2.67" x2="64.9" y2="283.07"/><line class="cls-2" x1="76.96" y1="2.67" x2="76.96" y2="283.07"/><line class="cls-2" x1="70.93" y1="2.67" x2="70.93" y2="283.07"/><line class="cls-2" x1="84" y1="2.67" x2="84" y2="283.07"/><line class="cls-2" x1="89.02" y1="2.67" x2="89.02" y2="283.07"/><line class="cls-2" x1="94.05" y1="2.67" x2="94.05" y2="283.07"/><line class="cls-2" x1="102.09" y1="2.67" x2="102.09" y2="283.07"/><line class="cls-2" x1="105.1" y1="2.67" x2="105.1" y2="283.07"/><line class="cls-2" x1="126.21" y1="5.18" x2="126.21" y2="285.58"/><line class="cls-2" x1="118.17" y1="2.67" x2="118.17" y2="283.07"/><line class="cls-2" x1="110.13" y1="5.18" x2="110.13" y2="285.58"/><line class="cls-2" x1="123.05" y1="2.67" x2="123.05" y2="283.07"/><line class="cls-2" x1="135.11" y1="2.67" x2="135.11" y2="283.07"/><line class="cls-2" x1="129.08" y1="2.67" x2="129.08" y2="283.07"/><line class="cls-2" x1="142.14" y1="2.67" x2="142.14" y2="283.07"/><line class="cls-2" x1="147.17" y1="2.67" x2="147.17" y2="283.07"/><line class="cls-2" x1="152.19" y1="2.67" x2="152.19" y2="283.07"/><line class="cls-2" x1="160.23" y1="2.67" x2="160.23" y2="283.07"/><line class="cls-2" x1="163.25" y1="2.67" x2="163.25" y2="283.07"/><line class="cls-2" x1="184.36" y1="5.18" x2="184.36" y2="285.58"/><line class="cls-2" x1="176.32" y1="2.67" x2="176.32" y2="283.07"/><line class="cls-2" x1="168.27" y1="5.18" x2="168.27" y2="285.58"/><line class="cls-2" x1="173.3" y1="2.67" x2="173.3" y2="283.07"/><line class="cls-2" x1="185.36" y1="2.67" x2="185.36" y2="283.07"/><line class="cls-2" x1="179.33" y1="2.67" x2="179.33" y2="283.07"/><line class="cls-2" x1="192.4" y1="2.67" x2="192.4" y2="283.07"/><line class="cls-2" x1="197.42" y1="2.67" x2="197.42" y2="283.07"/><line class="cls-2" x1="202.45" y1="2.67" x2="202.45" y2="283.07"/><line class="cls-2" x1="210.49" y1="2.67" x2="210.49" y2="283.07"/><line class="cls-2" x1="213.5" y1="2.67" x2="213.5" y2="283.07"/><line class="cls-2" x1="234.61" y1="5.18" x2="234.61" y2="285.58"/><line class="cls-2" x1="226.57" y1="2.67" x2="226.57" y2="283.07"/><line class="cls-2" x1="218.53" y1="5.18" x2="218.53" y2="285.58"/><line class="cls-2" x1="231.85" y1="3.93" x2="231.85" y2="284.33"/><line class="cls-2" x1="243.91" y1="3.93" x2="243.91" y2="284.33"/><line class="cls-2" x1="237.88" y1="3.93" x2="237.88" y2="284.33"/><line class="cls-2" x1="250.94" y1="3.93" x2="250.94" y2="284.33"/><line class="cls-2" x1="255.97" y1="3.93" x2="255.97" y2="284.33"/><line class="cls-2" x1="260.99" y1="3.93" x2="260.99" y2="284.33"/><line class="cls-2" x1="269.03" y1="3.93" x2="269.03" y2="284.33"/><line class="cls-2" x1="272.05" y1="3.93" x2="272.05" y2="284.33"/><line class="cls-2" x1="293.15" y1="6.44" x2="293.15" y2="286.84"/><line class="cls-2" x1="285.11" y1="3.93" x2="285.11" y2="284.33"/><line class="cls-2" x1="277.07" y1="6.44" x2="277.07" y2="286.84"/><line class="cls-2" x1="4.46" y1="293.15" x2="284.86" y2="293.15"/><line class="cls-2" x1="4.46" y1="281.09" x2="284.86" y2="281.09"/><line class="cls-2" x1="4.46" y1="287.12" x2="284.86" y2="287.12"/><line class="cls-2" x1="4.46" y1="274.06" x2="284.86" y2="274.06"/><line class="cls-2" x1="4.46" y1="269.03" x2="284.86" y2="269.03"/><line class="cls-2" x1="4.46" y1="264.01" x2="284.86" y2="264.01"/><line class="cls-2" x1="4.46" y1="255.97" x2="284.86" y2="255.97"/><line class="cls-2" x1="4.46" y1="252.95" x2="284.86" y2="252.95"/><line class="cls-2" x1="6.97" y1="231.85" x2="287.37" y2="231.85"/><line class="cls-2" x1="4.46" y1="239.89" x2="284.86" y2="239.89"/><line class="cls-2" x1="6.97" y1="247.93" x2="287.37" y2="247.93"/><line class="cls-2" x1="5.71" y1="228.38" x2="286.11" y2="228.38"/><line class="cls-2" x1="5.71" y1="216.32" x2="286.11" y2="216.32"/><line class="cls-2" x1="5.71" y1="222.35" x2="286.11" y2="222.35"/><line class="cls-2" x1="5.71" y1="209.28" x2="286.11" y2="209.28"/><line class="cls-2" x1="5.71" y1="204.26" x2="286.11" y2="204.26"/><line class="cls-2" x1="5.71" y1="199.23" x2="286.11" y2="199.23"/><line class="cls-2" x1="5.71" y1="191.19" x2="286.11" y2="191.19"/><line class="cls-2" x1="5.71" y1="188.18" x2="286.11" y2="188.18"/><line class="cls-2" x1="8.22" y1="167.07" x2="288.63" y2="167.07"/><line class="cls-2" x1="5.71" y1="175.11" x2="286.11" y2="175.11"/><line class="cls-2" x1="8.22" y1="183.15" x2="288.63" y2="183.15"/><line class="cls-2" x1="5.71" y1="170.23" x2="286.11" y2="170.23"/><line class="cls-2" x1="5.71" y1="158.17" x2="286.11" y2="158.17"/><line class="cls-2" x1="5.71" y1="164.2" x2="286.11" y2="164.2"/><line class="cls-2" x1="5.71" y1="151.14" x2="286.11" y2="151.14"/><line class="cls-2" x1="5.71" y1="146.11" x2="286.11" y2="146.11"/><line class="cls-2" x1="5.71" y1="141.09" x2="286.11" y2="141.09"/><line class="cls-2" x1="5.71" y1="133.04" x2="286.11" y2="133.05"/><line class="cls-2" x1="5.71" y1="130.03" x2="286.11" y2="130.03"/><line class="cls-2" x1="8.22" y1="108.92" x2="288.63" y2="108.92"/><line class="cls-2" x1="5.71" y1="116.96" x2="286.11" y2="116.96"/><line class="cls-2" x1="8.22" y1="125" x2="288.63" y2="125"/><line class="cls-2" x1="5.71" y1="119.98" x2="286.11" y2="119.98"/><line class="cls-2" x1="5.71" y1="107.92" x2="286.11" y2="107.92"/><line class="cls-2" x1="5.71" y1="113.95" x2="286.11" y2="113.95"/><line class="cls-2" x1="5.71" y1="100.88" x2="286.11" y2="100.88"/><line class="cls-2" x1="5.71" y1="95.86" x2="286.11" y2="95.86"/><line class="cls-2" x1="5.71" y1="90.83" x2="286.11" y2="90.83"/><line class="cls-2" x1="5.71" y1="82.79" x2="286.11" y2="82.79"/><line class="cls-2" x1="5.71" y1="79.78" x2="286.11" y2="79.78"/><line class="cls-2" x1="8.22" y1="58.67" x2="288.63" y2="58.67"/><line class="cls-2" x1="5.71" y1="66.71" x2="286.11" y2="66.71"/><line class="cls-2" x1="8.22" y1="74.75" x2="288.63" y2="74.75"/><line class="cls-2" x1="6.97" y1="61.43" x2="287.37" y2="61.43"/><line class="cls-2" x1="6.97" y1="49.37" x2="287.37" y2="49.37"/><line class="cls-2" x1="6.97" y1="55.4" x2="287.37" y2="55.4"/><line class="cls-2" x1="6.97" y1="42.34" x2="287.37" y2="42.34"/><line class="cls-2" x1="6.97" y1="37.31" x2="287.37" y2="37.31"/><line class="cls-2" x1="6.97" y1="32.29" x2="287.37" y2="32.29"/><line class="cls-2" x1="6.97" y1="24.25" x2="287.37" y2="24.25"/><line class="cls-2" x1="6.97" y1="21.23" x2="287.37" y2="21.23"/><line class="cls-2" x1="9.48" y1=".12" x2="289.88" y2=".13"/><line class="cls-2" x1="6.97" y1="8.17" x2="287.37" y2="8.17"/><line class="cls-2" x1="9.48" y1="16.21" x2="289.88" y2="16.21"/></g><g class="cls-4"><line class="cls-3" x1=".12" y1="1.43" x2=".12" y2="281.84"/><line class="cls-3" x1="12.19" y1="1.43" x2="12.19" y2="281.84"/><line class="cls-3" x1="6.16" y1="1.43" x2="6.16" y2="281.84"/><line class="cls-3" x1="19.22" y1="1.43" x2="19.22" y2="281.84"/><line class="cls-3" x1="24.25" y1="1.43" x2="24.25" y2="281.84"/><line class="cls-3" x1="29.27" y1="1.43" x2="29.27" y2="281.84"/><line class="cls-3" x1="37.31" y1="1.43" x2="37.31" y2="281.84"/><line class="cls-3" x1="40.33" y1="1.43" x2="40.33" y2="281.84"/><line class="cls-3" x1="61.43" y1="3.95" x2="61.43" y2="284.35"/><line class="cls-3" x1="53.39" y1="1.43" x2="53.39" y2="281.84"/><line class="cls-3" x1="45.35" y1="3.95" x2="45.35" y2="284.35"/><line class="cls-3" x1="64.9" y1="2.69" x2="64.9" y2="283.09"/><line class="cls-3" x1="76.96" y1="2.69" x2="76.96" y2="283.09"/><line class="cls-3" x1="70.93" y1="2.69" x2="70.93" y2="283.09"/><line class="cls-3" x1="84" y1="2.69" x2="84" y2="283.09"/><line class="cls-3" x1="89.02" y1="2.69" x2="89.02" y2="283.09"/><line class="cls-3" x1="94.05" y1="2.69" x2="94.05" y2="283.09"/><line class="cls-3" x1="102.09" y1="2.69" x2="102.09" y2="283.09"/><line class="cls-3" x1="105.1" y1="2.69" x2="105.1" y2="283.09"/><line class="cls-3" x1="126.21" y1="5.2" x2="126.21" y2="285.61"/><line class="cls-3" x1="118.17" y1="2.69" x2="118.17" y2="283.09"/><line class="cls-3" x1="110.13" y1="5.2" x2="110.13" y2="285.61"/><line class="cls-3" x1="123.05" y1="2.69" x2="123.05" y2="283.09"/><line class="cls-3" x1="135.11" y1="2.69" x2="135.11" y2="283.09"/><line class="cls-3" x1="129.08" y1="2.69" x2="129.08" y2="283.09"/><line class="cls-3" x1="142.14" y1="2.69" x2="142.14" y2="283.09"/><line class="cls-3" x1="147.17" y1="2.69" x2="147.17" y2="283.09"/><line class="cls-3" x1="152.19" y1="2.69" x2="152.19" y2="283.09"/><line class="cls-3" x1="160.23" y1="2.69" x2="160.23" y2="283.09"/><line class="cls-3" x1="163.25" y1="2.69" x2="163.25" y2="283.09"/><line class="cls-3" x1="184.36" y1="5.2" x2="184.36" y2="285.61"/><line class="cls-3" x1="176.32" y1="2.69" x2="176.32" y2="283.09"/><line class="cls-3" x1="168.27" y1="5.2" x2="168.27" y2="285.61"/><line class="cls-3" x1="173.3" y1="2.69" x2="173.3" y2="283.09"/><line class="cls-3" x1="185.36" y1="2.69" x2="185.36" y2="283.09"/><line class="cls-3" x1="179.33" y1="2.69" x2="179.33" y2="283.09"/><line class="cls-3" x1="192.4" y1="2.69" x2="192.4" y2="283.09"/><line class="cls-3" x1="197.42" y1="2.69" x2="197.42" y2="283.09"/><line class="cls-3" x1="202.45" y1="2.69" x2="202.45" y2="283.09"/><line class="cls-3" x1="210.49" y1="2.69" x2="210.49" y2="283.09"/><line class="cls-3" x1="213.5" y1="2.69" x2="213.5" y2="283.09"/><line class="cls-3" x1="234.61" y1="5.2" x2="234.61" y2="285.61"/><line class="cls-3" x1="226.57" y1="2.69" x2="226.57" y2="283.09"/><line class="cls-3" x1="218.53" y1="5.2" x2="218.53" y2="285.61"/><line class="cls-3" x1="231.85" y1="3.95" x2="231.85" y2="284.35"/><line class="cls-3" x1="243.91" y1="3.95" x2="243.91" y2="284.35"/><line class="cls-3" x1="237.88" y1="3.95" x2="237.88" y2="284.35"/><line class="cls-3" x1="250.94" y1="3.95" x2="250.94" y2="284.35"/><line class="cls-3" x1="255.97" y1="3.95" x2="255.97" y2="284.35"/><line class="cls-3" x1="260.99" y1="3.95" x2="260.99" y2="284.35"/><line class="cls-3" x1="269.03" y1="3.95" x2="269.03" y2="284.35"/><line class="cls-3" x1="272.05" y1="3.95" x2="272.05" y2="284.35"/><line class="cls-3" x1="293.15" y1="6.46" x2="293.15" y2="286.86"/><line class="cls-3" x1="285.11" y1="3.95" x2="285.11" y2="284.35"/><line class="cls-3" x1="277.07" y1="6.46" x2="277.07" y2="286.86"/><line class="cls-3" x1="4.46" y1="293.18" x2="284.86" y2="293.18"/><line class="cls-3" x1="4.46" y1="281.12" x2="284.86" y2="281.12"/><line class="cls-3" x1="4.46" y1="287.15" x2="284.86" y2="287.15"/><line class="cls-3" x1="4.46" y1="274.08" x2="284.86" y2="274.08"/><line class="cls-3" x1="4.46" y1="269.05" x2="284.86" y2="269.05"/><line class="cls-3" x1="4.46" y1="264.03" x2="284.86" y2="264.03"/><line class="cls-3" x1="4.46" y1="255.99" x2="284.86" y2="255.99"/><line class="cls-3" x1="4.46" y1="252.97" x2="284.86" y2="252.97"/><line class="cls-3" x1="6.97" y1="231.87" x2="287.37" y2="231.87"/><line class="cls-3" x1="4.46" y1="239.91" x2="284.86" y2="239.91"/><line class="cls-3" x1="6.97" y1="247.95" x2="287.37" y2="247.95"/><line class="cls-3" x1="5.71" y1="228.4" x2="286.11" y2="228.4"/><line class="cls-3" x1="5.71" y1="216.34" x2="286.11" y2="216.34"/><line class="cls-3" x1="5.71" y1="222.37" x2="286.11" y2="222.37"/><line class="cls-3" x1="5.71" y1="209.3" x2="286.11" y2="209.3"/><line class="cls-3" x1="5.71" y1="204.28" x2="286.11" y2="204.28"/><line class="cls-3" x1="5.71" y1="199.25" x2="286.11" y2="199.25"/><line class="cls-3" x1="5.71" y1="191.21" x2="286.11" y2="191.21"/><line class="cls-3" x1="5.71" y1="188.2" x2="286.11" y2="188.2"/><line class="cls-3" x1="8.22" y1="167.09" x2="288.63" y2="167.09"/><line class="cls-3" x1="5.71" y1="175.13" x2="286.11" y2="175.13"/><line class="cls-3" x1="8.22" y1="183.17" x2="288.63" y2="183.17"/><line class="cls-3" x1="5.71" y1="170.25" x2="286.11" y2="170.25"/><line class="cls-3" x1="5.71" y1="158.19" x2="286.11" y2="158.19"/><line class="cls-3" x1="5.71" y1="164.22" x2="286.11" y2="164.22"/><line class="cls-3" x1="5.71" y1="151.16" x2="286.11" y2="151.16"/><line class="cls-3" x1="5.71" y1="146.13" x2="286.11" y2="146.13"/><line class="cls-3" x1="5.71" y1="141.11" x2="286.11" y2="141.11"/><line class="cls-3" x1="5.71" y1="133.07" x2="286.11" y2="133.07"/><line class="cls-3" x1="5.71" y1="130.05" x2="286.11" y2="130.05"/><line class="cls-3" x1="8.22" y1="108.94" x2="288.63" y2="108.95"/><line class="cls-3" x1="5.71" y1="116.99" x2="286.11" y2="116.99"/><line class="cls-3" x1="8.22" y1="125.03" x2="288.63" y2="125.03"/><line class="cls-3" x1="5.71" y1="120" x2="286.11" y2="120"/><line class="cls-3" x1="5.71" y1="107.94" x2="286.11" y2="107.94"/><line class="cls-3" x1="5.71" y1="113.97" x2="286.11" y2="113.97"/><line class="cls-3" x1="5.71" y1="100.9" x2="286.11" y2="100.9"/><line class="cls-3" x1="5.71" y1="95.88" x2="286.11" y2="95.88"/><line class="cls-3" x1="5.71" y1="90.85" x2="286.11" y2="90.85"/><line class="cls-3" x1="5.71" y1="82.81" x2="286.11" y2="82.81"/><line class="cls-3" x1="5.71" y1="79.8" x2="286.11" y2="79.8"/><line class="cls-3" x1="8.22" y1="58.69" x2="288.63" y2="58.69"/><line class="cls-3" x1="5.71" y1="66.73" x2="286.11" y2="66.73"/><line class="cls-3" x1="8.22" y1="74.77" x2="288.63" y2="74.77"/><line class="cls-3" x1="6.97" y1="61.45" x2="287.37" y2="61.45"/><line class="cls-3" x1="6.97" y1="49.39" x2="287.37" y2="49.39"/><line class="cls-3" x1="6.97" y1="55.42" x2="287.37" y2="55.42"/><line class="cls-3" x1="6.97" y1="42.36" x2="287.37" y2="42.36"/><line class="cls-3" x1="6.97" y1="37.33" x2="287.37" y2="37.33"/><line class="cls-3" x1="6.97" y1="32.31" x2="287.37" y2="32.31"/><line class="cls-3" x1="6.97" y1="24.27" x2="287.37" y2="24.27"/><line class="cls-3" x1="6.97" y1="21.25" x2="287.37" y2="21.25"/><line class="cls-3" x1="9.48" y1=".15" x2="289.88" y2=".15"/><line class="cls-3" x1="6.97" y1="8.19" x2="287.37" y2="8.19"/><line class="cls-3" x1="9.48" y1="16.23" x2="289.88" y2="16.23"/></g></g></svg>